<svg xmlns="http://www.w3.org/2000/svg" xmlns:xlink="http://www.w3.org/1999/xlink" width="300" zoomAndPan="magnify" viewBox="0 0 224.87999 225" height="300" preserveAspectRatio="xMidYMid meet" version="1.0"><defs><g/></defs><g fill="#000000" fill-opacity="1"><g transform="translate(103.341376, 179.672432)"><g><path d="M -7.734375 -2.453125 L -4.15625 -1.328125 L -5.609375 16.046875 L -8.796875 15.03125 L -7.609375 2.875 L -7.890625 2.796875 L -14.40625 13.25 L -17.140625 12.375 L -16.46875 0.0625 L -16.75 -0.03125 L -22.828125 10.5625 L -25.890625 9.59375 L -17.046875 -5.421875 L -13.453125 -4.28125 L -13.953125 7.046875 L -13.734375 7.125 Z M -7.734375 -2.453125 "/></g></g></g><g fill="#000000" fill-opacity="1"><g transform="translate(83.939102, 173.189739)"><g><path d="M -13.75 -1.8125 L -6.734375 2.515625 C -6.234375 1.515625 -6.078125 0.65625 -6.265625 -0.0625 C -6.460938 -0.78125 -6.960938 -1.382812 -7.765625 -1.875 C -8.390625 -2.257812 -8.96875 -2.453125 -9.5 -2.453125 C -10.03125 -2.453125 -10.5625 -2.289062 -11.09375 -1.96875 L -11.3125 -2.09375 L -12.40625 -4.359375 C -11.582031 -4.929688 -10.664062 -5.234375 -9.65625 -5.265625 C -8.644531 -5.296875 -7.539062 -4.941406 -6.34375 -4.203125 C -5.21875 -3.503906 -4.375 -2.6875 -3.8125 -1.75 C -3.25 -0.8125 -3.007812 0.210938 -3.09375 1.328125 C -3.175781 2.453125 -3.585938 3.617188 -4.328125 4.828125 C -5.097656 6.066406 -5.972656 6.96875 -6.953125 7.53125 C -7.941406 8.101562 -8.96875 8.351562 -10.03125 8.28125 C -11.09375 8.207031 -12.117188 7.863281 -13.109375 7.25 C -14.648438 6.300781 -15.578125 5.164062 -15.890625 3.84375 C -16.210938 2.519531 -15.890625 1.070312 -14.921875 -0.5 C -14.566406 -1.082031 -14.269531 -1.519531 -14.03125 -1.8125 Z M -12.484375 1.40625 C -12.960938 2.257812 -13.140625 2.988281 -13.015625 3.59375 C -12.890625 4.195312 -12.484375 4.710938 -11.796875 5.140625 C -10.410156 5.992188 -9.109375 5.691406 -7.890625 4.234375 Z M -12.484375 1.40625 "/></g></g></g><g fill="#000000" fill-opacity="1"><g transform="translate(73.157536, 166.798852)"><g><path d="M -6.390625 -6.28125 C -5.191406 -5.164062 -4.71875 -3.890625 -4.96875 -2.453125 L -4.75 -2.328125 L -3.703125 -3.453125 L -1.34375 -1.25 L -13.578125 11.890625 L -15.9375 9.6875 L -11.390625 4.8125 L -11.546875 4.609375 C -12.296875 4.765625 -12.988281 4.742188 -13.625 4.546875 C -14.257812 4.359375 -14.878906 3.976562 -15.484375 3.40625 C -16.253906 2.695312 -16.753906 1.898438 -16.984375 1.015625 C -17.222656 0.128906 -17.160156 -0.820312 -16.796875 -1.84375 C -16.441406 -2.863281 -15.765625 -3.914062 -14.765625 -5 C -13.773438 -6.050781 -12.773438 -6.789062 -11.765625 -7.21875 C -10.765625 -7.644531 -9.800781 -7.769531 -8.875 -7.59375 C -7.957031 -7.414062 -7.128906 -6.976562 -6.390625 -6.28125 Z M -7.53125 -3.625 C -8.21875 -4.257812 -8.957031 -4.515625 -9.75 -4.390625 C -10.550781 -4.265625 -11.410156 -3.710938 -12.328125 -2.734375 C -13.253906 -1.734375 -13.75 -0.832031 -13.8125 -0.03125 C -13.875 0.769531 -13.5625 1.488281 -12.875 2.125 C -12.207031 2.738281 -11.457031 2.988281 -10.625 2.875 C -9.800781 2.757812 -8.941406 2.21875 -8.046875 1.25 C -7.148438 0.289062 -6.671875 -0.601562 -6.609375 -1.4375 C -6.554688 -2.28125 -6.863281 -3.007812 -7.53125 -3.625 Z M -7.53125 -3.625 "/></g></g></g><g fill="#000000" fill-opacity="1"><g transform="translate(62.867613, 156.863808)"><g/></g></g><g fill="#000000" fill-opacity="1"><g transform="translate(59.583581, 153.745408)"><g><path d="M -18.859375 1.21875 C -20.234375 -1.175781 -20.660156 -3.351562 -20.140625 -5.3125 C -19.617188 -7.28125 -18.140625 -8.960938 -15.703125 -10.359375 C -13.273438 -11.753906 -11.082031 -12.175781 -9.125 -11.625 C -7.164062 -11.082031 -5.5 -9.613281 -4.125 -7.21875 L -1.09375 -1.90625 L -15.828125 6.53125 Z M -6.484375 -5.625 C -7.347656 -7.144531 -8.378906 -8.0625 -9.578125 -8.375 C -10.785156 -8.6875 -12.253906 -8.347656 -13.984375 -7.359375 C -15.710938 -6.367188 -16.75 -5.273438 -17.09375 -4.078125 C -17.4375 -2.878906 -17.175781 -1.519531 -16.3125 0 L -15.046875 2.203125 L -5.21875 -3.421875 Z M -6.484375 -5.625 "/></g></g></g><g fill="#000000" fill-opacity="1"><g transform="translate(51.387205, 139.310439)"><g><path d="M -9.1875 -10.375 L -6.734375 -2.515625 C -5.691406 -2.941406 -5.007812 -3.488281 -4.6875 -4.15625 C -4.375 -4.820312 -4.359375 -5.601562 -4.640625 -6.5 C -4.867188 -7.195312 -5.179688 -7.722656 -5.578125 -8.078125 C -5.972656 -8.441406 -6.476562 -8.671875 -7.09375 -8.765625 L -7.171875 -9.015625 L -6.5 -11.4375 C -5.507812 -11.3125 -4.625 -10.929688 -3.84375 -10.296875 C -3.0625 -9.660156 -2.457031 -8.671875 -2.03125 -7.328125 C -1.632812 -6.066406 -1.53125 -4.898438 -1.71875 -3.828125 C -1.914062 -2.753906 -2.410156 -1.820312 -3.203125 -1.03125 C -4.003906 -0.238281 -5.082031 0.367188 -6.4375 0.796875 C -7.832031 1.234375 -9.085938 1.34375 -10.203125 1.125 C -11.328125 0.90625 -12.257812 0.421875 -13 -0.328125 C -13.75 -1.078125 -14.300781 -2.003906 -14.65625 -3.109375 C -15.195312 -4.835938 -15.148438 -6.304688 -14.515625 -7.515625 C -13.890625 -8.722656 -12.691406 -9.609375 -10.921875 -10.171875 C -10.273438 -10.367188 -9.769531 -10.503906 -9.40625 -10.578125 Z M -10.34375 -7.125 C -11.269531 -6.800781 -11.882812 -6.367188 -12.1875 -5.828125 C -12.488281 -5.296875 -12.519531 -4.640625 -12.28125 -3.859375 C -11.789062 -2.316406 -10.609375 -1.691406 -8.734375 -1.984375 Z M -10.34375 -7.125 "/></g></g></g><g fill="#000000" fill-opacity="1"><g transform="translate(47.501629, 127.327422)"><g><path d="M -1.03125 -8.75 L -0.578125 -4.953125 L -12.75 1.25 L -13.140625 -2.078125 L -4.453125 -6.3125 L -4.484375 -6.578125 L -13.921875 -8.6875 L -14.296875 -11.953125 Z M -1.03125 -8.75 "/></g></g></g><g fill="#000000" fill-opacity="1"><g transform="translate(45.920698, 114.990707)"><g><path d="M -4.78125 -13.015625 L -5.34375 -4.796875 C -4.226562 -4.816406 -3.398438 -5.078125 -2.859375 -5.578125 C -2.316406 -6.085938 -2.015625 -6.8125 -1.953125 -7.75 C -1.898438 -8.488281 -1.992188 -9.09375 -2.234375 -9.5625 C -2.472656 -10.03125 -2.859375 -10.421875 -3.390625 -10.734375 L -3.375 -10.984375 L -1.890625 -13.015625 C -1.003906 -12.535156 -0.316406 -11.851562 0.171875 -10.96875 C 0.671875 -10.09375 0.875 -8.957031 0.78125 -7.5625 C 0.6875 -6.238281 0.351562 -5.113281 -0.21875 -4.1875 C -0.789062 -3.269531 -1.585938 -2.582031 -2.609375 -2.125 C -3.640625 -1.675781 -4.867188 -1.5 -6.296875 -1.59375 C -7.753906 -1.695312 -8.960938 -2.054688 -9.921875 -2.671875 C -10.878906 -3.296875 -11.566406 -4.085938 -11.984375 -5.046875 C -12.410156 -6.015625 -12.582031 -7.082031 -12.5 -8.25 C -12.375 -10.050781 -11.796875 -11.398438 -10.765625 -12.296875 C -9.742188 -13.191406 -8.3125 -13.578125 -6.46875 -13.453125 C -5.789062 -13.398438 -5.265625 -13.34375 -4.890625 -13.28125 Z M -7.046875 -10.40625 C -8.023438 -10.4375 -8.75 -10.257812 -9.21875 -9.875 C -9.695312 -9.488281 -9.960938 -8.890625 -10.015625 -8.078125 C -10.128906 -6.453125 -9.265625 -5.4375 -7.421875 -5.03125 Z M -7.046875 -10.40625 "/></g></g></g><g fill="#000000" fill-opacity="1"><g transform="translate(46.970536, 102.158935)"><g><path d="M 1.375 -5.140625 C 1.132812 -4.023438 0.644531 -3.234375 -0.09375 -2.765625 C -0.84375 -2.296875 -1.835938 -2.195312 -3.078125 -2.46875 L -17.171875 -5.515625 L -16.484375 -8.671875 L -2.515625 -5.65625 C -1.742188 -5.488281 -1.289062 -5.71875 -1.15625 -6.34375 C -1.125 -6.53125 -1.113281 -6.734375 -1.125 -6.953125 L -1.046875 -7.09375 L 1.421875 -6.859375 C 1.472656 -6.660156 1.492188 -6.414062 1.484375 -6.125 C 1.484375 -5.832031 1.445312 -5.503906 1.375 -5.140625 Z M 1.375 -5.140625 "/></g></g></g><g fill="#000000" fill-opacity="1"><g transform="translate(47.950217, 95.926789)"><g><path d="M 2.875 -6.859375 C 2.4375 -5.691406 1.804688 -4.753906 0.984375 -4.046875 C 0.160156 -3.347656 -0.804688 -2.929688 -1.921875 -2.796875 C -3.035156 -2.660156 -4.25 -2.84375 -5.5625 -3.34375 C -6.882812 -3.851562 -7.914062 -4.53125 -8.65625 -5.375 C -9.40625 -6.21875 -9.847656 -7.171875 -9.984375 -8.234375 C -10.128906 -9.304688 -9.984375 -10.425781 -9.546875 -11.59375 C -9.097656 -12.769531 -8.460938 -13.707031 -7.640625 -14.40625 C -6.828125 -15.113281 -5.859375 -15.535156 -4.734375 -15.671875 C -3.617188 -15.816406 -2.398438 -15.632812 -1.078125 -15.125 C 0.234375 -14.625 1.257812 -13.945312 2 -13.09375 C 2.738281 -12.25 3.179688 -11.289062 3.328125 -10.21875 C 3.472656 -9.15625 3.320312 -8.035156 2.875 -6.859375 Z M 0.3125 -7.84375 C 1.019531 -9.695312 0.160156 -11.082031 -2.265625 -12 C -3.546875 -12.488281 -4.570312 -12.609375 -5.34375 -12.359375 C -6.113281 -12.109375 -6.671875 -11.53125 -7.015625 -10.625 C -7.722656 -8.757812 -6.847656 -7.359375 -4.390625 -6.421875 C -1.960938 -5.503906 -0.394531 -5.976562 0.3125 -7.84375 Z M 0.3125 -7.84375 "/></g></g></g><g fill="#000000" fill-opacity="1"><g transform="translate(52.569034, 83.299271)"><g><path d="M 5.359375 1.21875 L -9.828125 -8.453125 L -8.09375 -11.15625 L -6.671875 -10.25 L -6.5 -10.4375 C -6.84375 -11.101562 -6.976562 -11.789062 -6.90625 -12.5 C -6.84375 -13.21875 -6.582031 -13.9375 -6.125 -14.65625 C -5.570312 -15.53125 -4.882812 -16.160156 -4.0625 -16.546875 C -3.25 -16.929688 -2.304688 -17.035156 -1.234375 -16.859375 C -0.171875 -16.691406 0.984375 -16.210938 2.234375 -15.421875 C 3.460938 -14.640625 4.375 -13.785156 4.96875 -12.859375 C 5.5625 -11.941406 5.847656 -11.007812 5.828125 -10.0625 C 5.804688 -9.125 5.515625 -8.207031 4.953125 -7.3125 C 4.523438 -6.644531 4.039062 -6.140625 3.5 -5.796875 C 2.96875 -5.453125 2.359375 -5.265625 1.671875 -5.234375 L 1.578125 -5 L 7.09375 -1.484375 Z M 2.171875 -8.03125 C 2.691406 -8.84375 2.820312 -9.625 2.5625 -10.375 C 2.300781 -11.132812 1.597656 -11.878906 0.453125 -12.609375 C -0.691406 -13.335938 -1.664062 -13.660156 -2.46875 -13.578125 C -3.269531 -13.503906 -3.929688 -13.0625 -4.453125 -12.25 C -4.929688 -11.5 -5.035156 -10.726562 -4.765625 -9.9375 C -4.492188 -9.144531 -3.800781 -8.394531 -2.6875 -7.6875 C -1.59375 -6.988281 -0.628906 -6.679688 0.203125 -6.765625 C 1.035156 -6.859375 1.691406 -7.28125 2.171875 -8.03125 Z M 2.171875 -8.03125 "/></g></g></g><g fill="#000000" fill-opacity="1"><g transform="translate(59.994142, 71.510885)"><g><path d="M 4.671875 -13.0625 L -1.03125 -7.109375 C -0.164062 -6.410156 0.632812 -6.082031 1.375 -6.125 C 2.113281 -6.164062 2.804688 -6.523438 3.453125 -7.203125 C 3.972656 -7.734375 4.289062 -8.257812 4.40625 -8.78125 C 4.519531 -9.300781 4.472656 -9.847656 4.265625 -10.421875 L 4.4375 -10.609375 L 6.90625 -11.203125 C 7.257812 -10.273438 7.347656 -9.3125 7.171875 -8.3125 C 6.992188 -7.320312 6.414062 -6.320312 5.4375 -5.3125 C 4.519531 -4.351562 3.546875 -3.703125 2.515625 -3.359375 C 1.484375 -3.015625 0.429688 -2.992188 -0.640625 -3.296875 C -1.722656 -3.609375 -2.78125 -4.257812 -3.8125 -5.25 C -4.863281 -6.257812 -5.5625 -7.304688 -5.90625 -8.390625 C -6.25 -9.484375 -6.273438 -10.535156 -5.984375 -11.546875 C -5.691406 -12.566406 -5.140625 -13.5 -4.328125 -14.34375 C -3.078125 -15.65625 -1.769531 -16.328125 -0.40625 -16.359375 C 0.945312 -16.390625 2.296875 -15.757812 3.640625 -14.46875 C 4.128906 -14 4.5 -13.617188 4.75 -13.328125 Z M 1.25 -12.5 C 0.519531 -13.15625 -0.148438 -13.484375 -0.765625 -13.484375 C -1.378906 -13.492188 -1.96875 -13.207031 -2.53125 -12.625 C -3.65625 -11.445312 -3.640625 -10.109375 -2.484375 -8.609375 Z M 1.25 -12.5 "/></g></g></g><g fill="#000000" fill-opacity="1"><g transform="translate(68.860685, 62.349926)"><g><path d="M 1.46875 -1.109375 L -6.234375 -11.34375 L -3.734375 -13.21875 L -2.578125 -11.703125 L -2.359375 -11.8125 C -2.546875 -12.5625 -2.535156 -13.21875 -2.328125 -13.78125 C -2.117188 -14.351562 -1.726562 -14.859375 -1.15625 -15.296875 C -0.570312 -15.734375 -0.0546875 -15.96875 0.390625 -16 L 1.625 -13.453125 L 1.46875 -13.28125 C 1.25 -13.21875 1.050781 -13.140625 0.875 -13.046875 C 0.695312 -12.960938 0.492188 -12.835938 0.265625 -12.671875 C -0.441406 -12.128906 -0.796875 -11.460938 -0.796875 -10.671875 C -0.804688 -9.890625 -0.390625 -8.941406 0.453125 -7.828125 L 4.046875 -3.046875 Z M 1.46875 -1.109375 "/></g></g></g><g fill="#000000" fill-opacity="1"><g transform="translate(76.312984, 56.839138)"><g/></g></g><g fill="#000000" fill-opacity="1"><g transform="translate(80.638443, 54.226466)"><g/></g></g><g fill="#000000" fill-opacity="1"><g transform="translate(85.148975, 51.948149)"><g/></g></g><g fill="#000000" fill-opacity="1"><g transform="translate(89.767729, 50.013601)"><g><path d="M 3.15625 -0.875 C 2.757812 -0.75 2.382812 -0.71875 2.03125 -0.78125 C 1.6875 -0.851562 1.390625 -1.003906 1.140625 -1.234375 C 0.890625 -1.460938 0.710938 -1.753906 0.609375 -2.109375 C 0.492188 -2.460938 0.472656 -2.804688 0.546875 -3.140625 C 0.617188 -3.472656 0.773438 -3.765625 1.015625 -4.015625 C 1.265625 -4.273438 1.585938 -4.46875 1.984375 -4.59375 C 2.378906 -4.71875 2.753906 -4.742188 3.109375 -4.671875 C 3.460938 -4.609375 3.757812 -4.460938 4 -4.234375 C 4.25 -4.015625 4.425781 -3.726562 4.53125 -3.375 C 4.707031 -2.832031 4.671875 -2.328125 4.421875 -1.859375 C 4.171875 -1.390625 3.75 -1.0625 3.15625 -0.875 Z M 3.15625 -0.875 "/></g></g></g><g fill="#000000" fill-opacity="1"><g transform="translate(95.447705, 48.214046)"><g/></g></g><g fill="#000000" fill-opacity="1"><g transform="translate(100.370261, 47.072111)"><g/></g></g><g fill="#000000" fill-opacity="1"><g transform="translate(105.365055, 46.30545)"><g/></g></g><g fill="#000000" fill-opacity="1"><g transform="translate(109.82555, 45.416239)"><g><path d="M 8.203125 0.953125 C 6.796875 0.828125 5.597656 0.394531 4.609375 -0.34375 C 3.628906 -1.082031 2.914062 -2.125 2.46875 -3.46875 C 2.019531 -4.8125 1.878906 -6.4375 2.046875 -8.34375 C 2.210938 -10.269531 2.6875 -11.851562 3.46875 -13.09375 C 4.25 -14.332031 5.257812 -15.21875 6.5 -15.75 C 7.738281 -16.289062 9.148438 -16.5 10.734375 -16.375 C 12.347656 -16.226562 13.703125 -15.804688 14.796875 -15.109375 C 15.890625 -14.410156 16.617188 -13.453125 16.984375 -12.234375 L 14.421875 -10.953125 L 14.125 -10.984375 C 13.84375 -11.773438 13.40625 -12.367188 12.8125 -12.765625 C 12.21875 -13.171875 11.445312 -13.414062 10.5 -13.5 C 9.039062 -13.613281 7.882812 -13.238281 7.03125 -12.375 C 6.1875 -11.519531 5.675781 -10.078125 5.5 -8.046875 C 5.320312 -6.003906 5.550781 -4.488281 6.1875 -3.5 C 6.832031 -2.507812 7.863281 -1.957031 9.28125 -1.84375 C 10.488281 -1.738281 11.40625 -1.929688 12.03125 -2.421875 C 12.664062 -2.921875 13.03125 -3.71875 13.125 -4.8125 L 13.1875 -5.53125 L 9.1875 -5.875 L 9.421875 -8.609375 L 16.734375 -7.984375 L 15.9375 1.359375 L 12.75 1.078125 L 12.9375 -1.1875 L 12.703125 -1.234375 C 12.285156 -0.460938 11.707031 0.113281 10.96875 0.5 C 10.226562 0.894531 9.304688 1.046875 8.203125 0.953125 Z M 8.203125 0.953125 "/></g></g></g><g fill="#000000" fill-opacity="1"><g transform="translate(126.088968, 47.029787)"><g><path d="M 1.78125 0.5 L 5.21875 -11.84375 L 8.21875 -11.015625 L 7.703125 -9.171875 L 7.953125 -9.046875 C 8.429688 -9.648438 8.957031 -10.046875 9.53125 -10.234375 C 10.101562 -10.421875 10.738281 -10.421875 11.4375 -10.234375 C 12.132812 -10.035156 12.632812 -9.757812 12.9375 -9.40625 L 11.65625 -6.90625 L 11.40625 -6.921875 C 11.226562 -7.054688 11.050781 -7.164062 10.875 -7.25 C 10.707031 -7.34375 10.488281 -7.425781 10.21875 -7.5 C 9.351562 -7.75 8.609375 -7.628906 7.984375 -7.140625 C 7.359375 -6.660156 6.859375 -5.75 6.484375 -4.40625 L 4.875 1.359375 Z M 1.78125 0.5 "/></g></g></g><g fill="#000000" fill-opacity="1"><g transform="translate(134.735283, 49.20216)"><g><path d="M 4.4375 2.328125 C 3.6875 1.984375 3.101562 1.546875 2.6875 1.015625 C 2.269531 0.484375 2.03125 -0.113281 1.96875 -0.78125 C 1.914062 -1.457031 2.054688 -2.164062 2.390625 -2.90625 C 2.710938 -3.59375 3.128906 -4.101562 3.640625 -4.4375 C 4.160156 -4.769531 4.796875 -4.941406 5.546875 -4.953125 C 6.304688 -4.960938 7.222656 -4.820312 8.296875 -4.53125 C 9.046875 -4.320312 9.628906 -4.203125 10.046875 -4.171875 C 10.460938 -4.140625 10.773438 -4.175781 10.984375 -4.28125 C 11.191406 -4.394531 11.359375 -4.582031 11.484375 -4.84375 C 11.648438 -5.21875 11.648438 -5.5625 11.484375 -5.875 C 11.316406 -6.195312 10.929688 -6.5 10.328125 -6.78125 C 9.679688 -7.070312 8.992188 -7.207031 8.265625 -7.1875 C 7.546875 -7.164062 6.863281 -7.019531 6.21875 -6.75 L 6.015625 -6.84375 L 5.65625 -9.25 C 6.539062 -9.632812 7.488281 -9.8125 8.5 -9.78125 C 9.519531 -9.757812 10.539062 -9.515625 11.5625 -9.046875 C 13.09375 -8.347656 14.050781 -7.507812 14.4375 -6.53125 C 14.832031 -5.5625 14.753906 -4.476562 14.203125 -3.28125 L 11.875 1.78125 C 11.632812 2.300781 11.738281 2.664062 12.1875 2.875 C 12.363281 2.957031 12.554688 3.003906 12.765625 3.015625 L 12.890625 3.125 L 12.171875 5.265625 C 11.953125 5.296875 11.679688 5.273438 11.359375 5.203125 C 11.046875 5.140625 10.71875 5.023438 10.375 4.859375 C 9.675781 4.546875 9.191406 4.164062 8.921875 3.71875 C 8.648438 3.269531 8.566406 2.722656 8.671875 2.078125 L 8.453125 1.953125 C 7.328125 2.910156 5.988281 3.035156 4.4375 2.328125 Z M 6.375 0.5625 C 7.039062 0.863281 7.679688 0.878906 8.296875 0.609375 C 8.910156 0.335938 9.40625 -0.203125 9.78125 -1.015625 L 10.3125 -2.1875 L 10.15625 -2.328125 C 9.894531 -2.253906 9.601562 -2.238281 9.28125 -2.28125 C 8.957031 -2.320312 8.503906 -2.414062 7.921875 -2.5625 C 7.242188 -2.75 6.707031 -2.78125 6.3125 -2.65625 C 5.925781 -2.53125 5.625 -2.234375 5.40625 -1.765625 C 5.175781 -1.253906 5.144531 -0.800781 5.3125 -0.40625 C 5.488281 -0.0078125 5.84375 0.3125 6.375 0.5625 Z M 6.375 0.5625 "/></g></g></g><g fill="#000000" fill-opacity="1"><g transform="translate(145.852382, 54.063709)"><g><path d="M -1.53125 5.28125 L 9 -9.3125 L 11.609375 -7.421875 L 10.625 -6.0625 L 10.8125 -5.890625 C 11.488281 -6.191406 12.179688 -6.289062 12.890625 -6.1875 C 13.597656 -6.082031 14.296875 -5.78125 14.984375 -5.28125 C 15.828125 -4.675781 16.414062 -3.953125 16.75 -3.109375 C 17.082031 -2.273438 17.132812 -1.328125 16.90625 -0.265625 C 16.675781 0.796875 16.125 1.925781 15.25 3.125 C 14.394531 4.3125 13.492188 5.171875 12.546875 5.703125 C 11.597656 6.242188 10.65625 6.476562 9.71875 6.40625 C 8.78125 6.332031 7.882812 5.988281 7.03125 5.375 C 6.382812 4.914062 5.898438 4.40625 5.578125 3.84375 C 5.265625 3.28125 5.117188 2.65625 5.140625 1.96875 L 4.90625 1.859375 L 1.078125 7.171875 Z M 7.90625 2.640625 C 8.675781 3.203125 9.441406 3.375 10.203125 3.15625 C 10.972656 2.9375 11.753906 2.273438 12.546875 1.171875 C 13.347656 0.0664062 13.734375 -0.878906 13.703125 -1.671875 C 13.671875 -2.472656 13.269531 -3.15625 12.5 -3.71875 C 11.769531 -4.238281 11 -4.390625 10.1875 -4.171875 C 9.382812 -3.960938 8.59375 -3.320312 7.8125 -2.25 C 7.050781 -1.1875 6.691406 -0.238281 6.734375 0.59375 C 6.785156 1.4375 7.175781 2.117188 7.90625 2.640625 Z M 7.90625 2.640625 "/></g></g></g><g fill="#000000" fill-opacity="1"><g transform="translate(157.192162, 62.086544)"><g><path d="M 1.25 1.359375 L 14.5 -10.765625 L 16.671875 -8.390625 L 11.640625 -3.78125 L 11.765625 -3.5625 C 12.515625 -3.675781 13.222656 -3.617188 13.890625 -3.390625 C 14.554688 -3.171875 15.179688 -2.738281 15.765625 -2.09375 C 17.679688 0 17.460938 2.128906 15.109375 4.296875 L 9.015625 9.859375 L 6.84375 7.484375 L 12.625 2.1875 C 13.269531 1.59375 13.617188 1.035156 13.671875 0.515625 C 13.734375 -0.00390625 13.515625 -0.535156 13.015625 -1.078125 C 12.410156 -1.734375 11.707031 -2.054688 10.90625 -2.046875 C 10.113281 -2.035156 9.25 -1.597656 8.3125 -0.734375 L 3.421875 3.734375 Z M 1.25 1.359375 "/></g></g></g><g fill="#000000" fill-opacity="1"><g transform="translate(166.422345, 72.501167)"><g><path d="M 13.828125 -5.15625 C 13.492188 -5.632812 13.367188 -6.125 13.453125 -6.625 C 13.546875 -7.125 13.820312 -7.53125 14.28125 -7.84375 C 14.738281 -8.144531 15.210938 -8.242188 15.703125 -8.140625 C 16.203125 -8.035156 16.617188 -7.742188 16.953125 -7.265625 C 17.160156 -6.941406 17.28125 -6.609375 17.3125 -6.265625 C 17.351562 -5.929688 17.304688 -5.613281 17.171875 -5.3125 C 17.035156 -5.007812 16.8125 -4.757812 16.5 -4.5625 C 16.195312 -4.351562 15.878906 -4.238281 15.546875 -4.21875 C 15.222656 -4.195312 14.90625 -4.265625 14.59375 -4.421875 C 14.289062 -4.585938 14.035156 -4.832031 13.828125 -5.15625 Z M 1.03125 1.53125 L 11.65625 -5.625 L 13.453125 -2.953125 L 2.828125 4.203125 Z M 1.03125 1.53125 "/></g></g></g><g fill="#000000" fill-opacity="1"><g transform="translate(169.966485, 77.265673)"><g><path d="M 3.078125 6.8125 C 2.535156 5.695312 2.28125 4.597656 2.3125 3.515625 C 2.351562 2.429688 2.707031 1.425781 3.375 0.5 C 4.039062 -0.414062 5 -1.179688 6.25 -1.796875 C 7.519531 -2.421875 8.71875 -2.710938 9.84375 -2.671875 C 10.96875 -2.628906 11.96875 -2.300781 12.84375 -1.6875 C 13.726562 -1.070312 14.4375 -0.21875 14.96875 0.875 C 16.164062 3.300781 16.050781 5.285156 14.625 6.828125 L 12.25 5.5625 L 12.140625 5.34375 C 12.566406 4.832031 12.816406 4.320312 12.890625 3.8125 C 12.972656 3.300781 12.851562 2.722656 12.53125 2.078125 C 12.125 1.242188 11.515625 0.738281 10.703125 0.5625 C 9.898438 0.382812 8.898438 0.585938 7.703125 1.171875 C 6.523438 1.753906 5.765625 2.421875 5.421875 3.171875 C 5.078125 3.929688 5.113281 4.742188 5.53125 5.609375 C 5.84375 6.234375 6.269531 6.675781 6.8125 6.9375 C 7.363281 7.207031 8.003906 7.28125 8.734375 7.15625 L 8.84375 7.359375 L 8.734375 9.984375 C 7.617188 10.160156 6.5625 10.003906 5.5625 9.515625 C 4.5625 9.035156 3.734375 8.132812 3.078125 6.8125 Z M 3.078125 6.8125 "/></g></g></g><g fill="#000000" fill-opacity="1"><g transform="translate(175.225382, 88.347113)"><g/></g></g><g fill="#000000" fill-opacity="1"><g transform="translate(177.24971, 92.40279)"><g><path d="M 18.140625 5.296875 C 18.609375 8.015625 18.257812 10.207031 17.09375 11.875 C 15.9375 13.550781 13.972656 14.628906 11.203125 15.109375 C 8.441406 15.578125 6.234375 15.21875 4.578125 14.03125 C 2.929688 12.851562 1.875 10.90625 1.40625 8.1875 L 0.375 2.171875 L 17.109375 -0.71875 Z M 4.15625 7.5 C 4.457031 9.226562 5.117188 10.445312 6.140625 11.15625 C 7.171875 11.863281 8.664062 12.050781 10.625 11.71875 C 12.582031 11.375 13.929688 10.695312 14.671875 9.6875 C 15.410156 8.675781 15.628906 7.304688 15.328125 5.578125 L 14.890625 3.078125 L 3.71875 5 Z M 4.15625 7.5 "/></g></g></g><g fill="#000000" fill-opacity="1"><g transform="translate(180.011382, 108.77254)"><g><path d="M 5.09375 12.90625 L 5.46875 4.6875 C 4.351562 4.726562 3.53125 5.003906 3 5.515625 C 2.46875 6.035156 2.179688 6.757812 2.140625 7.6875 C 2.109375 8.425781 2.21875 9.03125 2.46875 9.5 C 2.726562 9.96875 3.125 10.351562 3.65625 10.65625 L 3.65625 10.90625 L 2.1875 12.96875 C 1.300781 12.507812 0.597656 11.84375 0.078125 10.96875 C -0.429688 10.101562 -0.65625 8.96875 -0.59375 7.5625 C -0.53125 6.25 -0.226562 5.125 0.3125 4.1875 C 0.863281 3.25 1.648438 2.539062 2.671875 2.0625 C 3.691406 1.582031 4.914062 1.378906 6.34375 1.453125 C 7.789062 1.515625 9 1.84375 9.96875 2.4375 C 10.945312 3.03125 11.660156 3.804688 12.109375 4.765625 C 12.554688 5.722656 12.75 6.785156 12.6875 7.953125 C 12.613281 9.753906 12.070312 11.113281 11.0625 12.03125 C 10.0625 12.957031 8.640625 13.378906 6.796875 13.296875 C 6.117188 13.265625 5.59375 13.21875 5.21875 13.15625 Z M 7.28125 10.234375 C 8.257812 10.242188 8.984375 10.046875 9.453125 9.640625 C 9.921875 9.242188 10.171875 8.644531 10.203125 7.84375 C 10.285156 6.21875 9.394531 5.222656 7.53125 4.859375 Z M 7.28125 10.234375 "/></g></g></g><g fill="#000000" fill-opacity="1"><g transform="translate(179.440119, 121.441126)"><g><path d="M -1.546875 5.796875 C -1.359375 4.941406 -1.082031 4.179688 -0.71875 3.515625 C -0.363281 2.847656 0.046875 2.300781 0.515625 1.875 C 0.984375 1.457031 1.46875 1.175781 1.96875 1.03125 L 3.46875 3.203125 L 3.421875 3.4375 C 2.765625 3.726562 2.226562 4.125 1.8125 4.625 C 1.40625 5.132812 1.128906 5.722656 0.984375 6.390625 C 0.847656 6.992188 0.851562 7.472656 1 7.828125 C 1.15625 8.191406 1.4375 8.421875 1.84375 8.515625 C 2.164062 8.585938 2.460938 8.535156 2.734375 8.359375 C 3.003906 8.179688 3.25 7.859375 3.46875 7.390625 L 4.25 5.828125 C 4.8125 4.660156 5.457031 3.851562 6.1875 3.40625 C 6.925781 2.96875 7.765625 2.851562 8.703125 3.0625 C 9.484375 3.238281 10.113281 3.585938 10.59375 4.109375 C 11.082031 4.640625 11.394531 5.300781 11.53125 6.09375 C 11.675781 6.882812 11.640625 7.757812 11.421875 8.71875 C 11.171875 9.84375 10.800781 10.738281 10.3125 11.40625 C 9.832031 12.070312 9.273438 12.550781 8.640625 12.84375 L 7.203125 10.75 L 7.25 10.53125 C 7.71875 10.269531 8.085938 9.941406 8.359375 9.546875 C 8.640625 9.160156 8.835938 8.695312 8.953125 8.15625 C 9.234375 6.914062 8.992188 6.210938 8.234375 6.046875 C 7.898438 5.972656 7.601562 6.023438 7.34375 6.203125 C 7.082031 6.390625 6.828125 6.765625 6.578125 7.328125 L 5.875 8.796875 C 5.332031 10.003906 4.695312 10.832031 3.96875 11.28125 C 3.238281 11.726562 2.363281 11.84375 1.34375 11.625 C 0.550781 11.445312 -0.0976562 11.09375 -0.609375 10.5625 C -1.128906 10.03125 -1.472656 9.359375 -1.640625 8.546875 C -1.804688 7.734375 -1.773438 6.816406 -1.546875 5.796875 Z M -1.546875 5.796875 "/></g></g></g><g fill="#000000" fill-opacity="1"><g transform="translate(176.987154, 132.037029)"><g><path d="M 12.328125 8.109375 C 12.523438 7.554688 12.847656 7.164062 13.296875 6.9375 C 13.753906 6.707031 14.25 6.691406 14.78125 6.890625 C 15.289062 7.078125 15.648438 7.398438 15.859375 7.859375 C 16.066406 8.316406 16.070312 8.820312 15.875 9.375 C 15.75 9.738281 15.554688 10.035156 15.296875 10.265625 C 15.035156 10.492188 14.742188 10.640625 14.421875 10.703125 C 14.109375 10.765625 13.78125 10.734375 13.4375 10.609375 C 13.09375 10.484375 12.8125 10.289062 12.59375 10.03125 C 12.382812 9.78125 12.253906 9.488281 12.203125 9.15625 C 12.160156 8.820312 12.203125 8.472656 12.328125 8.109375 Z M -0.625 1.734375 L 11.4375 6.078125 L 10.34375 9.109375 L -1.71875 4.765625 Z M -0.625 1.734375 "/></g></g></g><g fill="#000000" fill-opacity="1"><g transform="translate(175.245207, 137.712042)"><g><path d="M -7.890625 3.375 C -6.910156 1.5 -5.910156 0.257812 -4.890625 -0.34375 C -3.878906 -0.945312 -2.882812 -0.992188 -1.90625 -0.484375 C -1.300781 -0.171875 -0.90625 0.269531 -0.71875 0.84375 C -0.539062 1.425781 -0.578125 2.109375 -0.828125 2.890625 L -0.625 3 C -0.175781 2.738281 0.226562 2.597656 0.59375 2.578125 C 0.96875 2.554688 1.34375 2.644531 1.71875 2.84375 C 2.632812 3.320312 2.9375 4.238281 2.625 5.59375 L 2.84375 5.703125 C 3.519531 5.273438 4.195312 5.039062 4.875 5 C 5.550781 4.96875 6.253906 5.140625 6.984375 5.515625 C 7.742188 5.910156 8.316406 6.429688 8.703125 7.078125 C 9.097656 7.722656 9.28125 8.460938 9.25 9.296875 C 9.21875 10.140625 8.957031 11.023438 8.46875 11.953125 C 7.96875 12.910156 7.410156 13.585938 6.796875 13.984375 C 7.128906 14.585938 7.609375 15.09375 8.234375 15.5 L 8.25 15.78125 L 6.6875 17.5625 C 6.175781 17.21875 5.800781 16.820312 5.5625 16.375 C 5.332031 15.925781 5.210938 15.367188 5.203125 14.703125 L 4.96875 14.578125 C 4.070312 14.921875 3.117188 14.828125 2.109375 14.296875 C 1.410156 13.929688 0.875 13.425781 0.5 12.78125 C 0.132812 12.144531 -0.03125 11.40625 0 10.5625 C 0.0195312 9.726562 0.269531 8.847656 0.75 7.921875 L 1 7.5 C 1.144531 7.226562 1.25 7.039062 1.3125 6.9375 C 1.445312 6.675781 1.484375 6.4375 1.421875 6.21875 C 1.367188 6 1.226562 5.832031 1 5.71875 C 0.757812 5.59375 0.519531 5.585938 0.28125 5.703125 C 0.0507812 5.828125 -0.164062 6.066406 -0.375 6.421875 L -1.796875 8.9375 C -3.179688 11.40625 -4.914062 12.09375 -7 11 C -7.738281 10.613281 -8.296875 10.085938 -8.671875 9.421875 C -9.054688 8.753906 -9.195312 7.910156 -9.09375 6.890625 C -8.988281 5.867188 -8.585938 4.695312 -7.890625 3.375 Z M 2.75 8.96875 C 2.457031 9.53125 2.390625 10.046875 2.546875 10.515625 C 2.710938 10.992188 3.097656 11.390625 3.703125 11.703125 C 4.285156 12.015625 4.816406 12.097656 5.296875 11.953125 C 5.773438 11.816406 6.160156 11.46875 6.453125 10.90625 C 6.742188 10.351562 6.804688 9.84375 6.640625 9.375 C 6.484375 8.914062 6.113281 8.53125 5.53125 8.21875 C 4.914062 7.894531 4.367188 7.800781 3.890625 7.9375 C 3.421875 8.070312 3.039062 8.414062 2.75 8.96875 Z M -5.8125 4.453125 C -6.320312 5.429688 -6.554688 6.210938 -6.515625 6.796875 C -6.472656 7.378906 -6.234375 7.785156 -5.796875 8.015625 C -5.441406 8.191406 -5.117188 8.210938 -4.828125 8.078125 C -4.535156 7.941406 -4.257812 7.628906 -4 7.140625 L -2.71875 4.96875 C -2.675781 4.894531 -2.632812 4.820312 -2.59375 4.75 C -2.5625 4.6875 -2.523438 4.625 -2.484375 4.5625 C -2.234375 4.082031 -2.144531 3.660156 -2.21875 3.296875 C -2.300781 2.941406 -2.523438 2.671875 -2.890625 2.484375 C -3.367188 2.234375 -3.851562 2.269531 -4.34375 2.59375 C -4.84375 2.914062 -5.332031 3.535156 -5.8125 4.453125 Z M -5.8125 4.453125 "/></g></g></g><g fill="#000000" fill-opacity="1"><g transform="translate(169.894714, 148.411754)"><g><path d="M -1.15625 1.4375 L 8.859375 9.421875 L 6.9375 11.84375 L 5.46875 10.671875 L 5.28125 10.828125 C 5.914062 12.347656 5.675781 13.8125 4.5625 15.21875 C 3.632812 16.375 2.640625 16.972656 1.578125 17.015625 C 0.523438 17.054688 -0.601562 16.597656 -1.8125 15.640625 L -8.328125 10.453125 L -6.3125 7.9375 L -0.109375 12.890625 C 0.554688 13.410156 1.140625 13.648438 1.640625 13.609375 C 2.148438 13.578125 2.640625 13.269531 3.109375 12.6875 C 3.671875 11.96875 3.878906 11.21875 3.734375 10.4375 C 3.597656 9.664062 3.03125 8.878906 2.03125 8.078125 L -3.15625 3.953125 Z M -1.15625 1.4375 "/></g></g></g><g fill="#000000" fill-opacity="1"><g transform="translate(161.482967, 159.109601)"><g><path d="M -5.984375 12.515625 L 0.296875 7.1875 C -0.492188 6.394531 -1.257812 5.976562 -2 5.9375 C -2.738281 5.90625 -3.46875 6.191406 -4.1875 6.796875 C -4.75 7.273438 -5.113281 7.765625 -5.28125 8.265625 C -5.445312 8.773438 -5.460938 9.332031 -5.328125 9.9375 L -5.515625 10.09375 L -8.015625 10.4375 C -8.273438 9.46875 -8.265625 8.5 -7.984375 7.53125 C -7.703125 6.5625 -7.023438 5.625 -5.953125 4.71875 C -4.941406 3.863281 -3.90625 3.316406 -2.84375 3.078125 C -1.789062 2.835938 -0.742188 2.929688 0.296875 3.359375 C 1.347656 3.785156 2.332031 4.539062 3.25 5.625 C 4.195312 6.738281 4.78125 7.851562 5 8.96875 C 5.226562 10.082031 5.144531 11.128906 4.75 12.109375 C 4.351562 13.085938 3.710938 13.957031 2.828125 14.71875 C 1.441406 15.882812 0.0703125 16.414062 -1.28125 16.3125 C -2.632812 16.207031 -3.910156 15.445312 -5.109375 14.03125 C -5.546875 13.507812 -5.867188 13.09375 -6.078125 12.78125 Z M -2.53125 12.296875 C -1.882812 13.023438 -1.253906 13.425781 -0.640625 13.5 C -0.0234375 13.570312 0.59375 13.347656 1.21875 12.828125 C 2.457031 11.773438 2.578125 10.4375 1.578125 8.8125 Z M -2.53125 12.296875 "/></g></g></g><g fill="#000000" fill-opacity="1"><g transform="translate(151.713356, 167.306919)"><g><path d="M -1.578125 0.953125 L 5.03125 11.9375 L 2.34375 13.546875 L 1.359375 11.90625 L 1.125 12 C 1.226562 12.757812 1.148438 13.410156 0.890625 13.953125 C 0.628906 14.503906 0.191406 14.96875 -0.421875 15.34375 C -1.046875 15.71875 -1.582031 15.890625 -2.03125 15.859375 L -2.984375 13.203125 L -2.8125 13.046875 C -2.59375 13.015625 -2.390625 12.960938 -2.203125 12.890625 C -2.015625 12.828125 -1.800781 12.722656 -1.5625 12.578125 C -0.800781 12.117188 -0.378906 11.492188 -0.296875 10.703125 C -0.222656 9.921875 -0.546875 8.929688 -1.265625 7.734375 L -4.34375 2.609375 Z M -1.578125 0.953125 "/></g></g></g><g fill="#000000" fill-opacity="1"><g transform="translate(143.726638, 172.019379)"><g/></g></g><g fill="#000000" fill-opacity="1"><g transform="translate(139.154774, 174.171984)"><g/></g></g><g fill="#000000" fill-opacity="1"><g transform="translate(134.433321, 175.972925)"><g/></g></g><g fill="#000000" fill-opacity="1"><g transform="translate(129.643504, 177.420962)"><g><path d="M -3.234375 0.546875 C -2.828125 0.460938 -2.453125 0.46875 -2.109375 0.5625 C -1.773438 0.664062 -1.492188 0.847656 -1.265625 1.109375 C -1.046875 1.367188 -0.894531 1.679688 -0.8125 2.046875 C -0.738281 2.410156 -0.753906 2.753906 -0.859375 3.078125 C -0.972656 3.398438 -1.164062 3.671875 -1.4375 3.890625 C -1.707031 4.117188 -2.046875 4.273438 -2.453125 4.359375 C -2.859375 4.441406 -3.234375 4.429688 -3.578125 4.328125 C -3.921875 4.234375 -4.203125 4.0625 -4.421875 3.8125 C -4.640625 3.5625 -4.785156 3.253906 -4.859375 2.890625 C -4.972656 2.335938 -4.878906 1.835938 -4.578125 1.390625 C -4.285156 0.953125 -3.835938 0.671875 -3.234375 0.546875 Z M -3.234375 0.546875 "/></g></g></g></svg>