<svg version="1.1" id="Layer_1" xmlns="http://www.w3.org/2000/svg" xmlns:xlink="http://www.w3.org/1999/xlink" x="0px" y="0px"
	 width="100%" viewBox="0 0 300 300" enable-background="new 0 0 300 300" xml:space="preserve">
<path fill="#FEFEFE" opacity="1.000000" stroke="none" 
	d="
M166.000000,301.000000 
	C112.000008,301.000000 58.499912,300.958374 5.000281,301.097321 
	C1.575197,301.106201 0.900214,300.424103 0.904390,296.999908 
	C1.023108,199.666748 1.023101,102.333366 0.904406,5.000199 
	C0.900231,1.576256 1.575738,0.900207 5.000033,0.904384 
	C102.333206,1.023108 199.666595,1.023098 296.999756,0.904413 
	C300.423584,0.900238 301.099823,1.575593 301.095642,4.999979 
	C300.976929,102.333153 300.976898,199.666534 301.095581,296.999695 
	C301.099731,300.423431 300.425995,301.109863 296.999847,301.098145 
	C253.500290,300.949066 210.000061,301.000000 166.000000,301.000000 
z"/>
<path fill="#111111" opacity="1.000000" stroke="none" 
	d="
M110.061859,251.943146 
	C109.092308,254.429413 107.483223,255.040512 105.640228,253.828354 
	C103.585052,252.476685 105.664001,251.192307 106.241386,250.153946 
	C108.901115,245.370758 111.801903,240.722336 114.523468,235.972412 
	C115.424965,234.399033 116.197189,233.357285 118.372688,233.960754 
	C120.671921,234.598526 121.035545,235.870712 120.925850,237.969559 
	C120.749756,241.338715 120.878639,244.723816 120.878639,249.374512 
	C123.309700,245.563110 125.173370,242.744934 126.922188,239.857193 
	C127.842995,238.336716 128.617813,237.312592 130.806229,237.908005 
	C133.287003,238.582947 133.290649,240.050354 133.116791,242.023315 
	C132.620804,247.652145 132.273743,253.294403 131.744537,258.919739 
	C131.644821,259.979797 132.292587,262.009979 130.011749,261.597717 
	C128.415085,261.309113 126.813553,260.831329 127.241875,258.393799 
	C127.927956,254.489456 128.336792,250.535614 127.718155,245.528595 
	C125.328758,249.327454 123.368263,252.451843 121.399551,255.571030 
	C120.535728,256.939667 119.950806,258.631378 117.654579,257.767944 
	C115.698685,257.032471 116.027916,255.550598 116.098892,254.081436 
	C116.278954,250.354630 116.465805,246.628159 115.615540,242.549988 
	C113.812912,245.575607 112.010277,248.601227 110.061859,251.943146 
z"/>
<path fill="#141414" opacity="1.000000" stroke="none" 
	d="
M169.679626,51.577049 
	C169.548874,54.966526 169.138657,57.940506 169.072937,60.922077 
	C169.024963,63.098885 167.310852,64.009148 166.354095,62.986961 
	C163.960678,60.429897 162.016357,62.571449 159.856934,62.814060 
	C157.457077,63.083675 155.237869,62.362511 153.372437,60.806030 
	C149.401779,57.492996 148.867020,48.683819 152.295715,43.711159 
	C155.149918,39.571697 161.932770,38.227650 166.636581,41.011002 
	C168.230042,41.953899 170.682297,43.158203 169.382309,45.352299 
	C168.104065,47.509613 166.443542,46.318150 164.643875,44.853081 
	C161.149490,42.008358 156.458099,43.832119 155.303909,48.181114 
	C154.703888,50.442070 154.620071,52.812073 155.157364,55.100105 
	C155.655609,57.221897 157.142532,58.530762 159.310287,58.874607 
	C161.167496,59.169201 163.076126,59.177967 164.175766,57.290218 
	C165.041550,55.803921 165.920807,54.108078 162.894791,53.972366 
	C161.482635,53.909035 159.675476,54.240055 159.892700,51.821285 
	C160.152908,48.924088 162.304520,50.209492 163.673065,50.267845 
	C165.640488,50.351730 167.590408,50.845810 169.679626,51.577049 
z"/>
<path fill="#121212" opacity="1.000000" stroke="none" 
	d="
M54.953697,196.102997 
	C64.526543,186.589767 75.052544,189.513214 78.409180,202.189758 
	C78.674339,203.191147 78.612015,203.690292 77.770317,204.175186 
	C72.177444,207.397156 66.594933,210.637100 60.997246,213.850632 
	C60.269104,214.268661 59.633968,214.364395 58.805069,213.682312 
	C54.839897,210.419479 52.657784,201.377304 54.953697,196.102997 
z"/>
<path fill="#121212" opacity="1.000000" stroke="none" 
	d="
M253.218887,124.483017 
	C255.971558,124.766945 258.991608,121.630356 260.631622,125.039688 
	C263.735992,131.493118 262.249054,139.531998 257.884155,142.467468 
	C249.931778,147.815582 241.168167,144.269180 239.237076,134.921509 
	C237.628174,127.133438 237.629028,127.138718 245.432602,125.857536 
	C247.895874,125.453125 250.353149,125.012184 253.218887,124.483017 
z"/>
<path fill="#121212" opacity="1.000000" stroke="none" 
	d="
M238.284882,190.154327 
	C238.677338,190.928207 238.931915,191.590775 239.207275,191.599518 
	C247.013062,191.847702 248.932343,195.013443 245.318359,201.766815 
	C244.953720,202.448212 243.810471,203.099655 244.428299,203.831665 
	C245.636246,205.262772 245.852020,206.599411 244.106705,207.346832 
	C242.367676,208.091599 242.201981,206.299957 241.758484,205.182892 
	C241.697205,205.028488 241.658447,204.741455 241.584824,204.733185 
	C232.987122,203.766647 234.194794,198.265366 236.758133,191.923401 
	C233.558929,193.140442 233.248688,195.514877 232.045990,197.113678 
	C230.551926,199.099777 228.915283,200.694901 226.211929,199.654282 
	C223.323181,198.542282 222.237900,196.342163 222.727905,193.298569 
	C223.192001,190.416061 224.545731,187.939285 226.392380,185.785782 
	C229.263550,182.437531 232.227020,182.634949 233.778564,186.715714 
	C234.723969,189.202209 237.900192,187.132172 238.284882,190.154327 
z"/>
<path fill="#121212" opacity="1.000000" stroke="none" 
	d="
M83.678757,213.458710 
	C87.672348,212.567383 90.091042,214.228531 91.739120,217.299957 
	C92.043457,217.867157 91.978912,219.056656 92.289909,219.134048 
	C100.622093,221.207428 94.204315,224.152451 92.524849,226.241241 
	C89.520782,229.977509 86.086731,233.373398 82.757553,236.839661 
	C81.775276,237.862396 81.088707,239.929184 78.933258,237.918411 
	C76.931343,236.050858 78.444786,235.130737 79.505844,233.934219 
	C80.483871,232.831345 81.451225,231.719009 82.600807,230.408432 
	C79.166199,228.928345 75.676422,227.549698 75.868713,223.298325 
	C76.087227,218.467331 79.235023,215.606125 83.678757,213.458710 
z"/>
<path fill="#131313" opacity="1.000000" stroke="none" 
	d="
M78.002869,113.180817 
	C72.047363,109.651642 66.417831,106.138031 60.820221,102.574287 
	C59.879673,101.975487 58.048042,100.715446 58.432777,100.446243 
	C62.111835,97.871880 61.395042,92.417633 65.295135,90.172066 
	C68.290268,88.447548 71.112709,89.621101 73.749565,91.191238 
	C80.578903,95.257828 80.654259,100.750137 74.226021,105.344933 
	C74.533989,108.580994 83.306656,106.991463 78.002869,113.180817 
z"/>
<path fill="#0F0F0F" opacity="1.000000" stroke="none" 
	d="
M197.565521,74.346695 
	C200.424667,70.356171 203.141403,66.592941 205.939590,62.891285 
	C206.632629,61.974438 207.564102,59.806065 208.791092,61.544346 
	C210.704483,64.255089 213.864243,64.575996 216.125122,66.405518 
	C219.457687,69.102226 218.961670,73.959999 215.110382,78.300400 
	C211.691635,82.153320 207.516586,82.663277 204.274033,79.523552 
	C203.375916,78.653893 202.743240,77.510124 201.743484,76.161156 
	C200.635712,77.698120 199.719482,79.012634 198.756775,80.292160 
	C197.883026,81.453445 197.276352,82.862381 195.282440,81.417961 
	C193.408478,80.060440 194.114349,79.081093 195.106857,77.811012 
	C195.923218,76.766350 196.673569,75.670105 197.565521,74.346695 
z"/>
<path fill="#121212" opacity="1.000000" stroke="none" 
	d="
M220.258514,84.270348 
	C217.836853,85.167686 216.907379,90.267052 213.981888,87.042068 
	C211.154465,83.925201 215.663498,82.903511 217.122498,81.352539 
	C220.522049,77.738708 224.383484,74.561180 228.029495,71.176407 
	C229.213226,70.077477 230.156387,69.273369 231.665359,70.951637 
	C233.214432,72.674507 232.095856,73.465111 230.963226,74.480499 
	C229.620316,75.684372 228.325623,76.941994 226.928741,78.252586 
	C234.587982,81.207405 235.473526,85.163414 229.874969,90.450035 
	C228.066483,92.157784 226.121643,93.728264 224.391068,95.509132 
	C223.088486,96.849556 222.288254,96.417961 221.164948,95.285248 
	C219.819885,93.928947 220.352158,93.128860 221.542297,92.125221 
	C223.315857,90.629608 225.016281,89.041481 226.679184,87.422249 
	C228.065186,86.072632 230.046509,84.774956 228.093567,82.489212 
	C226.279572,80.366089 224.319931,80.902054 222.407639,82.393791 
	C221.754913,82.902969 221.153580,83.478012 220.258514,84.270348 
z"/>
<path fill="#141414" opacity="1.000000" stroke="none" 
	d="
M58.218872,140.339890 
	C58.673038,138.673355 58.832592,136.054428 61.123806,138.089691 
	C64.164383,140.790604 63.780556,144.388885 62.441227,147.761337 
	C60.869740,151.718384 56.293663,153.354919 51.384945,151.879059 
	C47.374077,150.673172 45.402832,147.836212 45.557281,143.671539 
	C45.702518,139.755234 47.416870,137.015533 51.613537,136.398148 
	C54.642620,135.952515 56.579334,136.611450 55.774216,140.291977 
	C55.562813,141.258377 55.357288,142.304504 55.512604,143.254608 
	C55.754681,144.735413 53.756165,147.437088 56.829903,147.430145 
	C59.086262,147.425064 59.791862,145.047073 59.500263,142.876755 
	C59.397964,142.115356 58.782520,141.422913 58.218872,140.339890 
z"/>
<path fill="#141414" opacity="1.000000" stroke="none" 
	d="
M60.790340,175.261810 
	C59.724464,173.824753 60.097660,172.694092 61.119663,172.015701 
	C62.309788,171.225693 63.301487,172.242584 64.187981,172.917648 
	C67.114502,175.146149 68.195946,180.578659 66.408859,183.795670 
	C64.425385,187.366180 58.456009,189.579788 54.598713,187.893539 
	C50.603195,186.146851 49.093437,182.716644 49.565262,178.547485 
	C49.932671,175.300949 52.400017,173.662827 55.297142,173.082169 
	C58.858025,172.368500 57.494965,176.020370 58.712280,177.434113 
	C58.812290,177.550247 58.817173,177.745621 58.875530,177.900681 
	C59.495533,179.548218 59.337219,181.685867 60.954407,182.685425 
	C61.823578,183.222641 62.716640,181.983444 63.040447,181.078491 
	C63.868721,178.763702 63.207623,176.855972 60.790340,175.261810 
z"/>
<path fill="#141414" opacity="1.000000" stroke="none" 
	d="
M212.478180,226.288452 
	C213.735611,224.808777 215.860535,224.477539 215.847198,222.519485 
	C215.841034,221.613419 214.737564,221.278091 213.944717,221.221985 
	C211.631317,221.058289 209.995941,222.381714 209.454330,224.405716 
	C208.921860,226.395615 208.026291,227.687042 206.143097,226.709259 
	C204.477203,225.844299 205.336548,223.899643 205.965439,222.671738 
	C207.846558,218.998840 210.814041,216.691483 215.146835,217.133316 
	C218.825134,217.508377 222.785721,221.904922 223.129288,225.722305 
	C223.535507,230.235886 221.003159,232.953125 217.172440,234.514587 
	C213.596573,235.972137 210.825226,234.026031 209.142731,231.221695 
	C207.429977,228.366943 211.310501,228.221466 212.478180,226.288452 
z"/>
<path fill="#141414" opacity="1.000000" stroke="none" 
	d="
M103.011871,242.428543 
	C98.662598,243.875214 95.475075,242.443726 92.923988,239.422211 
	C91.105148,237.267960 91.400177,234.811935 92.470131,232.385651 
	C93.406776,230.261673 94.558182,229.001465 96.917267,230.903992 
	C98.070007,231.833649 99.364334,232.718109 100.742599,233.197250 
	C101.881416,233.593155 102.924370,236.165314 104.313850,233.947968 
	C105.368683,232.264648 104.166382,230.801666 102.734985,229.739868 
	C102.344337,229.450104 101.882454,229.221344 101.418724,229.071442 
	C99.695862,228.514481 95.933044,229.785095 97.197533,226.380478 
	C98.195473,223.693527 101.535614,224.852997 103.803123,225.987778 
	C110.843765,229.511246 110.622780,236.646393 103.011871,242.428543 
z"/>
<path fill="#121212" opacity="1.000000" stroke="none" 
	d="
M197.316345,73.739899 
	C197.677856,74.096672 197.713898,73.902061 197.762146,73.911240 
	C193.807220,73.038345 190.936630,69.626328 186.502518,69.318687 
	C184.217590,69.160156 182.834732,66.602257 183.543808,63.878170 
	C184.196426,61.370918 185.692566,59.769798 188.478302,59.915405 
	C189.628693,59.975533 190.775925,60.192097 191.912109,60.404297 
	C193.451859,60.691856 195.632477,61.858398 195.864853,59.356400 
	C196.044769,57.419136 193.785950,57.178341 192.111740,57.003044 
	C190.672546,56.852356 188.212555,58.057709 188.522690,55.249737 
	C188.799301,52.745014 191.268570,53.359985 192.921890,53.522083 
	C199.360764,54.153385 201.836609,58.114906 198.877792,63.755016 
	C197.213898,66.926720 197.450226,70.154305 197.316345,73.739899 
z"/>
<path fill="#141414" opacity="1.000000" stroke="none" 
	d="
M243.864227,162.905930 
	C239.835510,159.291458 239.182724,155.283554 241.667694,151.417786 
	C243.878998,147.977768 248.966354,146.790192 253.324371,148.708603 
	C257.534790,150.561966 258.550537,154.011292 257.917450,158.182495 
	C257.603882,160.248505 256.543762,161.942032 254.621429,162.914230 
	C252.784531,163.843216 250.656921,164.441193 248.842178,163.550537 
	C247.014618,162.653564 248.248764,160.544724 248.055679,158.983643 
	C247.974915,158.330658 248.166763,157.644592 248.090958,156.990219 
	C247.927536,155.579651 248.915192,153.933838 247.557495,152.830978 
	C247.191010,152.533295 245.869583,152.910522 245.361694,153.382080 
	C243.872101,154.765121 243.396133,156.772217 244.494324,158.375153 
	C245.734055,160.184662 246.177856,161.477783 243.864227,162.905930 
z"/>
<path fill="#121212" opacity="1.000000" stroke="none" 
	d="
M90.659805,82.986580 
	C90.374390,88.386772 87.603165,91.360840 82.763603,92.132561 
	C79.119743,92.713623 74.367805,89.308929 73.183899,85.481842 
	C71.940582,81.462654 73.501450,78.336082 76.729530,75.902107 
	C78.440536,74.612015 80.341835,74.285286 82.393799,74.865570 
	C87.109718,76.199203 87.836792,78.531303 84.382500,81.896881 
	C82.849304,83.390701 80.884697,84.441734 78.641785,86.029373 
	C83.606789,89.260986 85.836906,87.689598 86.733185,84.333977 
	C87.447189,81.660797 88.279968,80.955315 90.659805,82.986580 
z"/>
<path fill="#0F0F0F" opacity="1.000000" stroke="none" 
	d="
M69.287994,114.683960 
	C69.116264,122.378441 65.587959,126.081772 59.677357,124.994408 
	C56.110847,124.338287 52.971802,122.716728 51.944256,118.903214 
	C50.957302,115.240341 52.050354,111.922363 54.994202,109.536354 
	C58.282440,106.871216 61.834648,107.671242 65.221764,109.494057 
	C67.162910,110.538719 68.680183,112.047699 69.287994,114.683960 
z"/>
<path fill="#121212" opacity="1.000000" stroke="none" 
	d="
M220.404022,210.376923 
	C222.913193,212.365448 225.118668,214.140396 227.360229,215.868500 
	C228.597809,216.822571 229.884827,217.587906 231.316208,216.109558 
	C232.811981,214.564682 233.135513,212.749969 231.683670,211.223877 
	C229.861572,209.308609 227.674561,207.741745 225.656342,206.011337 
	C224.575745,205.084839 223.055374,204.497711 224.600739,202.505341 
	C225.985153,200.720520 226.880829,201.293106 228.186279,202.367920 
	C231.271057,204.907791 234.437881,207.347778 237.535934,209.871872 
	C238.376785,210.556961 239.989822,211.879410 238.508575,212.499542 
	C235.174240,213.895432 235.142914,217.236542 233.398972,219.507736 
	C231.777313,221.619675 229.445068,222.372528 227.211578,220.930588 
	C223.868515,218.772293 220.439865,216.519058 217.754486,213.645569 
	C215.802734,211.557083 217.770309,210.307709 220.404022,210.376923 
z"/>
<path fill="#171717" opacity="1.000000" stroke="none" 
	d="
M243.505569,163.412598 
	C243.547867,162.961365 243.457352,162.963257 243.448364,162.939377 
	C244.116989,165.839340 244.516525,168.644745 241.999954,171.095154 
	C241.379929,171.698883 241.458786,173.246048 242.416138,173.779099 
	C243.711075,174.500137 244.535568,173.509140 245.093674,172.377731 
	C245.240173,172.080750 245.415359,171.797836 245.559891,171.499985 
	C247.226547,168.064972 249.329803,165.287888 253.607727,167.705032 
	C256.580872,169.384903 256.791351,174.496338 254.183136,177.958954 
	C253.574753,178.766632 253.029877,180.394501 251.582901,179.367752 
	C250.569839,178.648880 249.543396,177.558014 250.889114,176.081360 
	C251.422195,175.496384 251.803085,174.724350 252.089325,173.974884 
	C252.459808,173.004822 252.526978,171.794159 251.581543,171.263077 
	C250.472198,170.639908 249.813004,171.699356 249.272507,172.549362 
	C249.097229,172.824997 249.012268,173.156921 248.875504,173.458344 
	C247.225143,177.095444 245.097794,180.055801 240.537521,177.739090 
	C237.546539,176.219559 237.189056,171.402679 239.450317,167.438812 
	C240.397308,165.778763 241.789185,164.677551 243.505569,163.412598 
z"/>
<path fill="#131313" opacity="1.000000" stroke="none" 
	d="
M55.700443,163.581085 
	C57.174725,162.751404 57.635033,161.987686 56.028927,161.553925 
	C53.464825,160.861374 50.861565,160.266754 48.240234,159.847015 
	C45.842960,159.463135 45.022057,157.781738 45.523655,155.947372 
	C46.031864,154.088821 47.714230,155.435287 48.839382,155.676636 
	C52.576649,156.478302 56.287399,157.402695 60.017876,158.237289 
	C61.908955,158.660385 63.233406,159.249252 63.406689,161.673309 
	C63.554951,163.747330 62.899006,164.654968 61.167130,165.473160 
	C57.414013,167.246216 53.769955,169.249054 50.033466,171.059189 
	C49.181767,171.471817 47.962246,173.033737 47.241673,171.177902 
	C46.754452,169.923050 46.312263,168.170242 48.176121,167.257416 
	C50.562927,166.088486 52.961407,164.943405 55.700443,163.581085 
z"/>
<path fill="#181818" opacity="1.000000" stroke="none" 
	d="
M242.553131,105.084045 
	C240.058716,104.580688 238.180450,105.250381 236.627411,106.589859 
	C234.053238,108.810036 233.918594,111.307632 236.974579,113.012703 
	C238.713211,113.982758 240.769882,114.622330 239.123367,116.714310 
	C237.793686,118.403755 235.671112,117.208260 234.247330,116.079689 
	C231.578461,113.964218 230.363235,111.060440 230.981705,107.693016 
	C231.694931,103.809769 234.570419,101.919891 238.092560,100.825294 
	C241.252457,99.843269 244.058472,100.477852 246.239975,102.976562 
	C248.150864,105.165306 249.450912,107.706177 248.632370,110.721359 
	C248.381210,111.646606 248.155136,113.378479 246.450073,112.653183 
	C245.434982,112.221397 243.595383,112.044792 244.554581,109.971535 
	C245.497665,107.933075 244.382996,106.488998 242.553131,105.084045 
z"/>
<path fill="#141414" opacity="1.000000" stroke="none" 
	d="
M63.147453,133.728073 
	C55.891071,134.094879 49.498810,131.455994 42.829559,130.374634 
	C41.065811,130.088669 40.750751,129.197098 41.077591,127.608253 
	C41.469040,125.705360 42.707787,125.829269 44.087128,126.128563 
	C47.647320,126.901047 51.178661,127.853699 54.771580,128.412598 
	C57.449085,128.829117 60.266315,131.016434 62.943367,128.052048 
	C63.427704,127.515739 65.175461,127.644836 65.447403,128.762299 
	C65.909973,130.663055 65.032166,132.296997 63.147453,133.728073 
z"/>
<path fill="#121212" opacity="1.000000" stroke="none" 
	d="
M86.843750,72.075989 
	C84.408180,69.530350 84.528397,67.197067 87.811676,67.161926 
	C90.584763,67.132240 89.413818,64.665466 90.872375,64.055367 
	C91.876778,63.635235 92.759262,62.221256 93.763008,63.596138 
	C94.302032,64.334480 95.675591,65.627197 94.247742,66.580139 
	C89.838776,69.522690 92.612221,72.174736 94.420090,74.873306 
	C95.247261,76.108017 96.155823,77.297920 97.122849,78.426422 
	C98.059387,79.519318 98.149384,80.311424 96.843140,81.229454 
	C95.646782,82.070267 94.761063,82.755775 93.604042,81.116615 
	C91.505554,78.143669 89.247231,75.283546 86.843750,72.075989 
z"/>
<path fill="#161616" opacity="1.000000" stroke="none" 
	d="
M173.178146,64.807419 
	C171.716141,58.905766 174.904160,53.972778 176.058411,48.634953 
	C176.265594,47.676781 177.923828,47.845657 178.151443,48.313065 
	C179.901321,51.906429 184.468704,47.935955 185.977768,51.265522 
	C186.483231,52.380760 185.524109,54.341759 183.963470,53.955921 
	C178.113892,52.509724 178.632141,57.341743 177.149658,60.359608 
	C176.301636,62.085892 177.670761,65.705582 173.178146,64.807419 
z"/>
<path fill="#131313" opacity="1.000000" stroke="none" 
	d="
M208.809631,240.865448 
	C206.573181,241.792282 204.304672,241.789108 203.212158,244.201889 
	C202.775345,245.166595 201.225937,245.742752 200.342758,244.418304 
	C199.769836,243.559143 198.963821,242.071960 200.313721,241.340073 
	C205.034668,238.780487 202.267578,235.890884 200.817596,233.080231 
	C200.064316,231.620132 199.095245,230.272568 198.252350,228.857071 
	C197.739395,227.995605 197.987076,227.327805 198.850876,226.834534 
	C199.676300,226.363144 200.888519,225.144943 201.406052,226.060745 
	C204.117249,230.858429 208.646805,234.725601 208.809631,240.865448 
z"/>
<path fill="#131313" opacity="1.000000" stroke="none" 
	d="
M240.731598,91.303543 
	C240.555695,94.162987 238.249802,95.767601 235.700211,97.297050 
	C233.161942,98.819710 230.732376,100.534103 228.329025,102.266922 
	C227.021591,103.209587 226.348511,102.767876 225.601334,101.578964 
	C224.941284,100.528641 224.270645,99.682770 225.714813,98.720459 
	C229.550125,96.164810 233.397522,93.622276 237.141586,90.937141 
	C238.759232,89.777031 239.354156,91.843910 240.731598,91.303543 
z"/>
<path fill="#121212" opacity="1.000000" stroke="none" 
	d="
M240.380264,185.532379 
	C238.941452,184.973373 237.869095,184.525192 236.758438,184.213547 
	C235.412613,183.835907 234.739059,183.229080 235.368835,181.733109 
	C235.921478,180.420334 236.423416,179.349518 238.224442,180.030762 
	C242.240402,181.549850 246.287735,182.988113 250.342102,184.402496 
	C251.910202,184.949539 252.368469,185.787491 251.714859,187.387222 
	C251.061462,188.986404 250.201248,189.190948 248.653580,188.551682 
	C246.062302,187.481354 243.376038,186.640900 240.380264,185.532379 
z"/>
<path fill="#2B2B2B" opacity="1.000000" stroke="none" 
	d="
M122.235260,62.141228 
	C124.715912,60.604870 126.418381,61.244469 126.907784,63.641064 
	C127.310493,65.613144 125.656326,66.810417 123.949585,66.600838 
	C121.566696,66.308235 120.686661,64.708069 122.235260,62.141228 
z"/>
<path fill="#2B2B2B" opacity="1.000000" stroke="none" 
	d="
M172.893921,241.613419 
	C171.270447,243.823181 169.538071,244.474167 167.893402,242.291199 
	C166.787750,240.823685 167.368134,239.311874 168.998047,238.611420 
	C171.500595,237.535980 172.733704,238.758972 172.893921,241.613419 
z"/>
<path fill="#181818" opacity="1.000000" stroke="none" 
	d="
M256.577515,191.244293 
	C253.684174,191.167740 252.693054,189.893036 253.858215,187.491058 
	C254.491669,186.185181 255.777878,185.547485 257.085754,186.496658 
	C259.199432,188.030594 258.912659,189.671753 256.577515,191.244293 
z"/>
<path fill="#131313" opacity="1.000000" stroke="none" 
	d="
M240.986633,90.994217 
	C240.955200,88.992455 240.741547,86.704781 243.750092,86.872276 
	C245.522934,86.970978 246.509918,88.426765 245.924240,90.072334 
	C245.138397,92.280365 243.510849,92.628761 241.272156,90.960327 
	C240.889633,90.893005 240.955795,90.959076 240.986633,90.994217 
z"/>
<path fill="#F6F6F6" opacity="1.000000" stroke="none" 
	d="
M59.673347,207.498627 
	C56.496906,201.201843 57.283173,198.434555 62.646538,195.828522 
	C67.013855,193.706497 70.283844,194.948990 72.394142,199.490677 
	C72.734283,200.222717 73.591049,201.234848 72.722198,201.656189 
	C68.458679,203.723770 65.160561,207.820496 59.673347,207.498627 
z"/>
<path fill="#F4F4F4" opacity="1.000000" stroke="none" 
	d="
M252.394684,139.731308 
	C250.025223,140.012497 248.025223,140.393539 246.176193,139.310196 
	C243.562531,137.778854 242.828781,135.152863 242.904327,132.480743 
	C242.988770,129.493484 245.872025,130.726547 247.492950,130.108932 
	C248.707733,129.646057 250.122589,129.290543 251.378571,129.447083 
	C253.500961,129.711624 256.499390,126.605003 257.651062,130.467514 
	C258.695099,133.969101 258.432953,137.482498 254.190338,139.125931 
	C253.727020,139.305389 253.257767,139.469467 252.394684,139.731308 
z"/>
<path fill="#DDDDDD" opacity="1.000000" stroke="none" 
	d="
M229.222366,188.020081 
	C232.055511,187.999405 232.300369,189.324478 231.157227,191.111816 
	C230.154404,192.679749 229.893906,195.156433 227.526978,195.268417 
	C226.232513,195.329636 225.796127,193.926758 226.130920,192.681488 
	C226.601715,190.930435 227.403168,189.337646 229.222366,188.020081 
z"/>
<path fill="#DDDDDD" opacity="1.000000" stroke="none" 
	d="
M241.559143,195.329514 
	C244.084747,196.758011 244.512634,198.438629 242.492493,200.095352 
	C240.859390,201.434647 239.095078,200.464966 238.446915,198.940414 
	C237.457443,196.613113 238.751892,195.299332 241.559143,195.329514 
z"/>
<path fill="#F3F3F3" opacity="1.000000" stroke="none" 
	d="
M81.604492,220.502075 
	C83.936874,218.018799 86.283188,215.987167 88.882301,219.172821 
	C91.197273,222.010223 88.805695,224.070007 86.864265,225.895782 
	C85.409019,227.264343 83.642723,227.722977 81.892868,226.431580 
	C79.685905,224.802856 79.911484,222.827148 81.604492,220.502075 
z"/>
<path fill="#F1F1F1" opacity="1.000000" stroke="none" 
	d="
M64.991165,96.308884 
	C68.337585,93.352257 72.804367,94.368607 74.340469,97.927971 
	C74.979103,99.407784 74.454613,100.537361 73.650917,101.599236 
	C72.786034,102.741936 71.482964,103.333046 70.113907,102.823837 
	C67.277260,101.768761 64.384064,100.630089 64.991165,96.308884 
z"/>
<path fill="#ECECEC" opacity="1.000000" stroke="none" 
	d="
M205.481049,70.962692 
	C207.550888,68.057076 209.727951,65.615303 212.786072,68.705147 
	C215.533264,71.480850 212.943344,73.783127 211.188385,75.889503 
	C210.006058,77.308586 208.370453,77.678825 206.745621,76.808777 
	C204.391739,75.548332 204.390244,73.491608 205.481049,70.962692 
z"/>
<path fill="#E1E1E1" opacity="1.000000" stroke="none" 
	d="
M48.929691,143.906738 
	C49.135242,141.803543 50.006229,140.629944 51.758324,140.725708 
	C53.204948,140.804779 52.845932,142.123184 52.721756,143.018372 
	C52.526474,144.426132 53.163033,146.527405 51.659458,147.024429 
	C50.068867,147.550232 49.210995,145.904480 48.929691,143.906738 
z"/>
<path fill="#E1E1E1" opacity="1.000000" stroke="none" 
	d="
M57.003632,181.389786 
	C57.160378,182.630585 58.201031,183.839630 56.475788,184.009735 
	C54.469780,184.207550 53.496494,182.871246 53.054047,181.127991 
	C52.744553,179.908569 53.097439,178.820221 54.190979,178.105896 
	C55.377983,177.330551 55.949314,177.912857 56.250710,179.098816 
	C56.412540,179.735596 56.683937,180.344559 57.003632,181.389786 
z"/>
<path fill="#E1E1E1" opacity="1.000000" stroke="none" 
	d="
M216.140472,226.883926 
	C217.333252,226.092133 218.311691,224.537964 219.067810,226.499771 
	C219.744934,228.256622 218.864624,229.727432 217.277390,230.655212 
	C216.201248,231.284256 214.884750,231.421280 214.120041,230.382416 
	C212.668961,228.411102 215.217789,228.230896 216.140472,226.883926 
z"/>
<path fill="#ECECEC" opacity="1.000000" stroke="none" 
	d="
M96.064293,234.804398 
	C98.610809,234.780579 100.268257,236.261581 102.084808,237.787064 
	C97.632660,240.163437 96.685043,239.716980 96.064293,234.804398 
z"/>
<path fill="#E1E1E1" opacity="1.000000" stroke="none" 
	d="
M188.681915,66.824486 
	C187.180664,63.989838 188.138840,62.712582 190.893021,63.035439 
	C191.979935,63.162857 194.219299,62.640129 193.853943,64.590843 
	C193.412292,66.948898 191.660217,68.267059 188.681915,66.824486 
z"/>
<path fill="#DDDDDD" opacity="1.000000" stroke="none" 
	d="
M250.949966,157.486969 
	C251.444321,155.711029 249.916031,153.430923 252.156769,153.004440 
	C253.707001,152.709381 254.617340,154.438995 254.739883,155.979248 
	C254.884201,157.793289 254.041077,159.176605 252.131607,159.493393 
	C250.984039,159.683777 250.973312,158.697113 250.949966,157.486969 
z"/>
<path fill="#ECECEC" opacity="1.000000" stroke="none" 
	d="
M80.673195,78.575378 
	C83.013206,81.964470 79.245850,82.276688 78.235321,83.973145 
	C77.927505,84.489906 77.032677,83.964317 76.870956,83.212593 
	C76.256401,80.355843 77.527069,78.834511 80.673195,78.575378 
z"/>
<path fill="#ECECEC" opacity="1.000000" stroke="none" 
	d="
M58.311996,119.914307 
	C55.460442,118.263664 54.413010,116.181938 56.302139,113.667198 
	C58.230412,111.100365 60.790649,112.237312 62.985882,113.335335 
	C64.983749,114.334641 66.534637,115.873466 65.318748,118.463333 
	C63.775478,121.750534 61.263428,121.118843 58.311996,119.914307 
z"/>
</svg>